<svg width="114" height="22" viewBox="0 0 114 22" fill="none" xmlns="http://www.w3.org/2000/svg">
<path d="M6.02397 17.216C9.09597 17.216 11.28 15.224 11.28 12.452C11.28 9.716 9.17997 8.6 6.51597 7.592C4.22397 6.728 2.67597 6.02 2.67597 4.232C2.67597 2.636 3.97197 1.436 5.87997 1.436C7.37997 1.436 8.50797 2.18 9.29997 3.548L10.536 2.78C9.56397 0.98 7.97997 0.0319996 5.91597 0.0319996C3.03597 0.0319996 1.10397 1.82 1.10397 4.256C1.10397 6.752 2.98797 7.868 5.65197 8.888C7.91997 9.752 9.73197 10.484 9.73197 12.548C9.73197 14.468 8.14797 15.812 6.07197 15.812C3.65997 15.812 2.03997 14.492 1.64397 12.188L0.119967 12.56C0.587967 15.404 2.77197 17.216 6.02397 17.216ZM19.2101 4.988C17.4101 4.988 15.9341 5.78 15.0221 7.268V5.168H13.5221V21.896H15.0221V14.9C15.8741 16.316 17.3381 17.18 19.2101 17.18C22.2701 17.18 24.5861 14.732 24.5861 11.096C24.5861 7.616 22.4261 4.988 19.2101 4.988ZM18.9701 15.788C16.5941 15.788 14.9021 13.832 14.9021 11.096C14.9021 8.348 16.5941 6.392 18.9701 6.392C21.3581 6.392 23.0861 8.36 23.0861 11.096C23.0861 13.832 21.3581 15.788 18.9701 15.788ZM31.5948 4.988C29.6628 4.988 28.0548 5.66 26.7708 7.256L27.8748 8.168C28.9428 6.824 30.0468 6.32 31.4988 6.32C33.6828 6.32 34.7988 7.472 34.7988 9.632V10.088H31.0308C29.7108 10.088 28.5228 10.328 27.6948 10.916C26.9148 11.48 26.4468 12.344 26.4468 13.556C26.4468 15.74 28.0428 17.18 30.7188 17.18C32.4228 17.18 33.9228 16.448 34.8108 14.708L34.9068 17H36.2988V9.632C36.2988 6.644 34.6188 4.988 31.5948 4.988ZM30.8508 15.944C29.0268 15.944 27.9468 15.008 27.9468 13.568C27.9468 12.788 28.2468 12.248 28.7628 11.864C29.3508 11.456 30.2388 11.288 31.2348 11.288H34.7988V11.936C34.7988 14.24 33.0108 15.944 30.8508 15.944ZM43.9042 17.18C46.1002 17.18 47.7922 16.052 48.5602 13.952L47.2162 13.424C46.7002 14.924 45.5602 15.848 43.9042 15.848C41.3242 15.848 40.1122 13.592 40.1122 11.072C40.1122 8.576 41.3242 6.32 43.9042 6.32C45.5602 6.32 46.7002 7.232 47.2162 8.744L48.5602 8.216C47.7922 6.104 46.1002 4.988 43.9042 4.988C40.5682 4.988 38.6002 7.688 38.6002 11.072C38.6002 14.48 40.5682 17.18 43.9042 17.18ZM60.4642 10.46C60.4642 7.808 58.9762 4.988 55.3642 4.988C51.9802 4.988 50.1442 7.784 50.1442 11.156C50.1442 14.552 52.0042 17.18 55.5562 17.18C57.4762 17.18 58.7842 16.592 60.1162 15.224L59.0482 14.276C57.9802 15.404 57.0082 15.8 55.5562 15.8C53.1562 15.8 51.7042 14.18 51.6562 11.492H60.4042C60.4402 11.18 60.4642 10.772 60.4642 10.46ZM51.6442 10.304C51.8242 8.012 53.1802 6.272 55.3882 6.272C57.9562 6.272 59.0242 8.228 59.0242 9.944C59.0242 10.052 59.0242 10.172 59.0122 10.304H51.6442Z" fill="black"/>
<path d="M68.8188 17C72.2388 17 74.1348 15.344 74.1348 12.356C74.1348 10.088 73.0428 8.576 71.0268 8.108C72.4668 7.508 73.3068 6.176 73.3068 4.424C73.3068 1.82 71.4468 0.271999 68.3268 0.271999H63.2748V17H68.8188ZM64.8348 1.712H68.3268C70.4988 1.712 71.7348 2.792 71.7348 4.652C71.7348 6.476 70.5828 7.628 68.7828 7.628H64.8348V1.712ZM64.8348 9.044H69.3108C71.3868 9.044 72.5748 10.232 72.5748 12.296C72.5748 14.468 71.2908 15.548 68.6988 15.548H64.8348V9.044ZM81.7293 17.18C85.0293 17.18 87.3693 14.636 87.3693 11.072C87.3693 7.508 85.0413 4.988 81.7293 4.988C78.4173 4.988 76.0893 7.508 76.0893 11.072C76.0893 14.648 78.4293 17.18 81.7293 17.18ZM81.7293 15.836C79.2333 15.836 77.6013 13.94 77.6013 11.072C77.6013 8.216 79.2213 6.332 81.7293 6.332C84.2373 6.332 85.8573 8.216 85.8573 11.072C85.8573 13.94 84.2373 15.836 81.7293 15.836ZM95.0775 17.18C98.3775 17.18 100.717 14.636 100.717 11.072C100.717 7.508 98.3895 4.988 95.0775 4.988C91.7655 4.988 89.4375 7.508 89.4375 11.072C89.4375 14.648 91.7775 17.18 95.0775 17.18ZM95.0775 15.836C92.5815 15.836 90.9495 13.94 90.9495 11.072C90.9495 8.216 92.5695 6.332 95.0775 6.332C97.5855 6.332 99.2055 8.216 99.2055 11.072C99.2055 13.94 97.5855 15.836 95.0775 15.836ZM112.542 5.168H110.514L104.862 11.144V0.271999H103.35V17H104.862V13.04L107.226 10.544L111.45 17H113.25L108.318 9.512L112.542 5.168Z" fill="#19C1B7"/>
</svg>
